<?xml version="1.0" encoding="UTF-8" standalone="no"?>
<!DOCTYPE svg PUBLIC "-//W3C//DTD SVG 1.1//EN"
 "http://www.w3.org/Graphics/SVG/1.1/DTD/svg11.dtd">
<!-- Generated by graphviz version 2.47.3 (20210619.1520)
 -->
<!-- Title: dependencies Pages: 1 -->
<svg width="2784pt" height="247pt"
 viewBox="0.00 0.00 2784.00 246.80" xmlns="http://www.w3.org/2000/svg" xmlns:xlink="http://www.w3.org/1999/xlink">
<g id="graph0" class="graph" transform="scale(1 1) rotate(0) translate(4 242.8)">
<title>dependencies</title>
<polygon fill="white" stroke="transparent" points="-4,4 -4,-242.8 2780,-242.8 2780,4 -4,4"/>
<text text-anchor="middle" x="1388" y="-8.2" font-family="sans-serif" font-size="14.00">dependencies</text>
<g id="clust1" class="cluster">
<title>cluster_AppModule</title>
<polygon fill="none" stroke="black" stroke-dasharray="1,5" points="8,-32.8 8,-230.8 2768,-230.8 2768,-32.8 8,-32.8"/>
</g>
<g id="clust16" class="cluster">
<title>cluster_AppModule_imports</title>
<polygon fill="none" stroke="black" points="2616,-40.8 2616,-92.8 2760,-92.8 2760,-40.8 2616,-40.8"/>
</g>
<g id="clust18" class="cluster">
<title>cluster_AppModule_bootstrap</title>
<polygon fill="none" stroke="black" points="1472,-170.8 1472,-222.8 1596,-222.8 1596,-170.8 1472,-170.8"/>
</g>
<g id="clust2" class="cluster">
<title>cluster_AppModule_declarations</title>
<polygon fill="none" stroke="black" points="16,-40.8 16,-92.8 2608,-92.8 2608,-40.8 16,-40.8"/>
</g>
<!-- AppComponent -->
<g id="node1" class="node">
<title>AppComponent</title>
<polygon fill="#ffffb3" stroke="black" points="2599.94,-84.8 2494.06,-84.8 2494.06,-48.8 2599.94,-48.8 2599.94,-84.8"/>
<text text-anchor="middle" x="2547" y="-62.6" font-family="Times,serif" font-size="14.00">AppComponent</text>
</g>
<!-- AppModule -->
<g id="node14" class="node">
<title>AppModule</title>
<polygon fill="#8dd3c7" stroke="black" points="1575.66,-149.8 1572.66,-153.8 1551.66,-153.8 1548.66,-149.8 1492.34,-149.8 1492.34,-113.8 1575.66,-113.8 1575.66,-149.8"/>
<text text-anchor="middle" x="1534" y="-127.6" font-family="Times,serif" font-size="14.00">AppModule</text>
</g>
<!-- AppComponent&#45;&gt;AppModule -->
<g id="edge1" class="edge">
<title>AppComponent&#45;&gt;AppModule</title>
<path fill="none" stroke="black" d="M2547,-84.84C2547,-106.46 2547,-139.8 2547,-139.8 2547,-139.8 1585.92,-139.8 1585.92,-139.8"/>
<polygon fill="black" stroke="black" points="1585.92,-136.3 1575.92,-139.8 1585.92,-143.3 1585.92,-136.3"/>
</g>
<!-- CardForMainComponent -->
<g id="node2" class="node">
<title>CardForMainComponent</title>
<polygon fill="#ffffb3" stroke="black" points="2476.54,-84.8 2319.46,-84.8 2319.46,-48.8 2476.54,-48.8 2476.54,-84.8"/>
<text text-anchor="middle" x="2398" y="-62.6" font-family="Times,serif" font-size="14.00">CardForMainComponent</text>
</g>
<!-- CardForMainComponent&#45;&gt;AppModule -->
<g id="edge2" class="edge">
<title>CardForMainComponent&#45;&gt;AppModule</title>
<path fill="none" stroke="black" d="M2398,-85.02C2398,-105.17 2398,-134.8 2398,-134.8 2398,-134.8 1585.67,-134.8 1585.67,-134.8"/>
<polygon fill="black" stroke="black" points="1585.67,-131.3 1575.67,-134.8 1585.67,-138.3 1585.67,-131.3"/>
</g>
<!-- CardForShoppinglistComponent -->
<g id="node3" class="node">
<title>CardForShoppinglistComponent</title>
<polygon fill="#ffffb3" stroke="black" points="2301.28,-84.8 2102.72,-84.8 2102.72,-48.8 2301.28,-48.8 2301.28,-84.8"/>
<text text-anchor="middle" x="2202" y="-62.6" font-family="Times,serif" font-size="14.00">CardForShoppinglistComponent</text>
</g>
<!-- CardForShoppinglistComponent&#45;&gt;AppModule -->
<g id="edge3" class="edge">
<title>CardForShoppinglistComponent&#45;&gt;AppModule</title>
<path fill="none" stroke="black" d="M2202,-85.02C2202,-103.63 2202,-129.8 2202,-129.8 2202,-129.8 1585.79,-129.8 1585.79,-129.8"/>
<polygon fill="black" stroke="black" points="1585.79,-126.3 1575.79,-129.8 1585.79,-133.3 1585.79,-126.3"/>
</g>
<!-- CardsForFavoritsComponent -->
<g id="node4" class="node">
<title>CardsForFavoritsComponent</title>
<polygon fill="#ffffb3" stroke="black" points="2084.82,-84.8 1905.18,-84.8 1905.18,-48.8 2084.82,-48.8 2084.82,-84.8"/>
<text text-anchor="middle" x="1995" y="-62.6" font-family="Times,serif" font-size="14.00">CardsForFavoritsComponent</text>
</g>
<!-- CardsForFavoritsComponent&#45;&gt;AppModule -->
<g id="edge4" class="edge">
<title>CardsForFavoritsComponent&#45;&gt;AppModule</title>
<path fill="none" stroke="black" d="M1995,-84.83C1995,-101.86 1995,-124.8 1995,-124.8 1995,-124.8 1585.72,-124.8 1585.72,-124.8"/>
<polygon fill="black" stroke="black" points="1585.72,-121.3 1575.72,-124.8 1585.72,-128.3 1585.72,-121.3"/>
</g>
<!-- FavoritsCreateComponent -->
<g id="node5" class="node">
<title>FavoritsCreateComponent</title>
<polygon fill="#ffffb3" stroke="black" points="1886.75,-84.8 1723.25,-84.8 1723.25,-48.8 1886.75,-48.8 1886.75,-84.8"/>
<text text-anchor="middle" x="1805" y="-62.6" font-family="Times,serif" font-size="14.00">FavoritsCreateComponent</text>
</g>
<!-- FavoritsCreateComponent&#45;&gt;AppModule -->
<g id="edge5" class="edge">
<title>FavoritsCreateComponent&#45;&gt;AppModule</title>
<path fill="none" stroke="black" d="M1805,-85.04C1805,-100.37 1805,-119.8 1805,-119.8 1805,-119.8 1585.75,-119.8 1585.75,-119.8"/>
<polygon fill="black" stroke="black" points="1585.75,-116.3 1575.75,-119.8 1585.75,-123.3 1585.75,-116.3"/>
</g>
<!-- FavoritsScreenComponent -->
<g id="node6" class="node">
<title>FavoritsScreenComponent</title>
<polygon fill="#ffffb3" stroke="black" points="1704.8,-84.8 1539.2,-84.8 1539.2,-48.8 1704.8,-48.8 1704.8,-84.8"/>
<text text-anchor="middle" x="1622" y="-62.6" font-family="Times,serif" font-size="14.00">FavoritsScreenComponent</text>
</g>
<!-- FavoritsScreenComponent&#45;&gt;AppModule -->
<g id="edge6" class="edge">
<title>FavoritsScreenComponent&#45;&gt;AppModule</title>
<path fill="none" stroke="black" d="M1557.59,-84.91C1557.59,-84.91 1557.59,-103.79 1557.59,-103.79"/>
<polygon fill="black" stroke="black" points="1554.09,-103.79 1557.59,-113.79 1561.09,-103.79 1554.09,-103.79"/>
</g>
<!-- MainScreenComponent -->
<g id="node7" class="node">
<title>MainScreenComponent</title>
<polygon fill="#ffffb3" stroke="black" points="1521.47,-84.8 1372.53,-84.8 1372.53,-48.8 1521.47,-48.8 1521.47,-84.8"/>
<text text-anchor="middle" x="1447" y="-62.6" font-family="Times,serif" font-size="14.00">MainScreenComponent</text>
</g>
<!-- MainScreenComponent&#45;&gt;AppModule -->
<g id="edge7" class="edge">
<title>MainScreenComponent&#45;&gt;AppModule</title>
<path fill="none" stroke="black" d="M1506.83,-84.91C1506.83,-84.91 1506.83,-103.79 1506.83,-103.79"/>
<polygon fill="black" stroke="black" points="1503.33,-103.79 1506.83,-113.79 1510.33,-103.79 1503.33,-103.79"/>
</g>
<!-- ProductDetailviewComponent -->
<g id="node8" class="node">
<title>ProductDetailviewComponent</title>
<polygon fill="#ffffb3" stroke="black" points="1354.3,-84.8 1167.7,-84.8 1167.7,-48.8 1354.3,-48.8 1354.3,-84.8"/>
<text text-anchor="middle" x="1261" y="-62.6" font-family="Times,serif" font-size="14.00">ProductDetailviewComponent</text>
</g>
<!-- ProductDetailviewComponent&#45;&gt;AppModule -->
<g id="edge8" class="edge">
<title>ProductDetailviewComponent&#45;&gt;AppModule</title>
<path fill="none" stroke="black" d="M1261,-85.04C1261,-100.37 1261,-119.8 1261,-119.8 1261,-119.8 1482.24,-119.8 1482.24,-119.8"/>
<polygon fill="black" stroke="black" points="1482.24,-123.3 1492.24,-119.8 1482.24,-116.3 1482.24,-123.3"/>
</g>
<!-- ShoppinglistDetailsComponent -->
<g id="node9" class="node">
<title>ShoppinglistDetailsComponent</title>
<polygon fill="#ffffb3" stroke="black" points="1149.77,-84.8 958.23,-84.8 958.23,-48.8 1149.77,-48.8 1149.77,-84.8"/>
<text text-anchor="middle" x="1054" y="-62.6" font-family="Times,serif" font-size="14.00">ShoppinglistDetailsComponent</text>
</g>
<!-- ShoppinglistDetailsComponent&#45;&gt;AppModule -->
<g id="edge9" class="edge">
<title>ShoppinglistDetailsComponent&#45;&gt;AppModule</title>
<path fill="none" stroke="black" d="M1054,-84.83C1054,-101.86 1054,-124.8 1054,-124.8 1054,-124.8 1482.24,-124.8 1482.24,-124.8"/>
<polygon fill="black" stroke="black" points="1482.24,-128.3 1492.24,-124.8 1482.24,-121.3 1482.24,-128.3"/>
</g>
<!-- ShoppinglistScreenComponent -->
<g id="node10" class="node">
<title>ShoppinglistScreenComponent</title>
<polygon fill="#ffffb3" stroke="black" points="940.21,-84.8 749.79,-84.8 749.79,-48.8 940.21,-48.8 940.21,-84.8"/>
<text text-anchor="middle" x="845" y="-62.6" font-family="Times,serif" font-size="14.00">ShoppinglistScreenComponent</text>
</g>
<!-- ShoppinglistScreenComponent&#45;&gt;AppModule -->
<g id="edge10" class="edge">
<title>ShoppinglistScreenComponent&#45;&gt;AppModule</title>
<path fill="none" stroke="black" d="M845,-85.02C845,-103.63 845,-129.8 845,-129.8 845,-129.8 1482.19,-129.8 1482.19,-129.8"/>
<polygon fill="black" stroke="black" points="1482.19,-133.3 1492.19,-129.8 1482.19,-126.3 1482.19,-133.3"/>
</g>
<!-- SubmenuCardforfavoritsComponent -->
<g id="node11" class="node">
<title>SubmenuCardforfavoritsComponent</title>
<polygon fill="#ffffb3" stroke="black" points="732.02,-84.8 511.98,-84.8 511.98,-48.8 732.02,-48.8 732.02,-84.8"/>
<text text-anchor="middle" x="622" y="-62.6" font-family="Times,serif" font-size="14.00">SubmenuCardforfavoritsComponent</text>
</g>
<!-- SubmenuCardforfavoritsComponent&#45;&gt;AppModule -->
<g id="edge11" class="edge">
<title>SubmenuCardforfavoritsComponent&#45;&gt;AppModule</title>
<path fill="none" stroke="black" d="M622,-85.02C622,-105.17 622,-134.8 622,-134.8 622,-134.8 1482.14,-134.8 1482.14,-134.8"/>
<polygon fill="black" stroke="black" points="1482.14,-138.3 1492.14,-134.8 1482.14,-131.3 1482.14,-138.3"/>
</g>
<!-- SubmenuCardformainComponent -->
<g id="node12" class="node">
<title>SubmenuCardformainComponent</title>
<polygon fill="#ffffb3" stroke="black" points="493.75,-84.8 288.25,-84.8 288.25,-48.8 493.75,-48.8 493.75,-84.8"/>
<text text-anchor="middle" x="391" y="-62.6" font-family="Times,serif" font-size="14.00">SubmenuCardformainComponent</text>
</g>
<!-- SubmenuCardformainComponent&#45;&gt;AppModule -->
<g id="edge12" class="edge">
<title>SubmenuCardformainComponent&#45;&gt;AppModule</title>
<path fill="none" stroke="black" d="M391,-84.84C391,-106.46 391,-139.8 391,-139.8 391,-139.8 1482.31,-139.8 1482.31,-139.8"/>
<polygon fill="black" stroke="black" points="1482.31,-143.3 1492.31,-139.8 1482.31,-136.3 1482.31,-143.3"/>
</g>
<!-- SubmenuCardforshoppinglistComponent -->
<g id="node13" class="node">
<title>SubmenuCardforshoppinglistComponent</title>
<polygon fill="#ffffb3" stroke="black" points="270.2,-84.8 23.8,-84.8 23.8,-48.8 270.2,-48.8 270.2,-84.8"/>
<text text-anchor="middle" x="147" y="-62.6" font-family="Times,serif" font-size="14.00">SubmenuCardforshoppinglistComponent</text>
</g>
<!-- SubmenuCardforshoppinglistComponent&#45;&gt;AppModule -->
<g id="edge13" class="edge">
<title>SubmenuCardforshoppinglistComponent&#45;&gt;AppModule</title>
<path fill="none" stroke="black" d="M147,-84.89C147,-107.93 147,-144.8 147,-144.8 147,-144.8 1482.11,-144.8 1482.11,-144.8"/>
<polygon fill="black" stroke="black" points="1482.11,-148.3 1492.11,-144.8 1482.11,-141.3 1482.11,-148.3"/>
</g>
<!-- AppComponent  -->
<g id="node16" class="node">
<title>AppComponent </title>
<polygon fill="#80b1d3" stroke="black" points="1588.44,-214.8 1479.56,-214.8 1479.56,-178.8 1588.44,-178.8 1588.44,-214.8"/>
<text text-anchor="middle" x="1534" y="-192.6" font-family="Times,serif" font-size="14.00">AppComponent </text>
</g>
<!-- AppModule&#45;&gt;AppComponent  -->
<g id="edge15" class="edge">
<title>AppModule&#45;&gt;AppComponent </title>
<path fill="none" stroke="black" stroke-dasharray="1,5" d="M1534,-149.91C1534,-149.91 1534,-168.79 1534,-168.79"/>
<polygon fill="black" stroke="black" points="1530.5,-168.79 1534,-178.79 1537.5,-168.79 1530.5,-168.79"/>
</g>
<!-- AppRoutingModule -->
<g id="node15" class="node">
<title>AppRoutingModule</title>
<polygon fill="#8dd3c7" stroke="black" points="2752.27,-84.8 2749.27,-88.8 2728.27,-88.8 2725.27,-84.8 2623.73,-84.8 2623.73,-48.8 2752.27,-48.8 2752.27,-84.8"/>
<text text-anchor="middle" x="2688" y="-62.6" font-family="Times,serif" font-size="14.00">AppRoutingModule</text>
</g>
<!-- AppRoutingModule&#45;&gt;AppModule -->
<g id="edge14" class="edge">
<title>AppRoutingModule&#45;&gt;AppModule</title>
<path fill="none" stroke="black" d="M2688,-84.89C2688,-107.93 2688,-144.8 2688,-144.8 2688,-144.8 1585.75,-144.8 1585.75,-144.8"/>
<polygon fill="black" stroke="black" points="1585.75,-141.3 1575.75,-144.8 1585.75,-148.3 1585.75,-141.3"/>
</g>
</g>
</svg>
