<?xml version="1.0" encoding="UTF-8" standalone="no"?>
<!DOCTYPE svg PUBLIC "-//W3C//DTD SVG 1.1//EN"
 "http://www.w3.org/Graphics/SVG/1.1/DTD/svg11.dtd">
<!-- Generated by graphviz version 2.47.3 (20210619.1520)
 -->
<!-- Title: dependencies Pages: 1 -->
<svg width="3084pt" height="247pt"
 viewBox="0.00 0.00 3084.00 246.80" xmlns="http://www.w3.org/2000/svg" xmlns:xlink="http://www.w3.org/1999/xlink">
<g id="graph0" class="graph" transform="scale(1 1) rotate(0) translate(4 242.8)">
<title>dependencies</title>
<polygon fill="white" stroke="transparent" points="-4,4 -4,-242.8 3080,-242.8 3080,4 -4,4"/>
<text text-anchor="middle" x="1538" y="-8.2" font-family="sans-serif" font-size="14.00">dependencies</text>
<g id="clust1" class="cluster">
<title>cluster_AppModule</title>
<polygon fill="none" stroke="black" stroke-dasharray="1,5" points="8,-32.8 8,-230.8 3068,-230.8 3068,-32.8 8,-32.8"/>
</g>
<g id="clust18" class="cluster">
<title>cluster_AppModule_imports</title>
<polygon fill="none" stroke="black" points="2916,-40.8 2916,-92.8 3060,-92.8 3060,-40.8 2916,-40.8"/>
</g>
<g id="clust2" class="cluster">
<title>cluster_AppModule_declarations</title>
<polygon fill="none" stroke="black" points="16,-40.8 16,-92.8 2908,-92.8 2908,-40.8 16,-40.8"/>
</g>
<g id="clust20" class="cluster">
<title>cluster_AppModule_bootstrap</title>
<polygon fill="none" stroke="black" points="1603,-170.8 1603,-222.8 1727,-222.8 1727,-170.8 1603,-170.8"/>
</g>
<!-- AppComponent -->
<g id="node1" class="node">
<title>AppComponent</title>
<polygon fill="#ffffb3" stroke="black" points="2899.94,-84.8 2794.06,-84.8 2794.06,-48.8 2899.94,-48.8 2899.94,-84.8"/>
<text text-anchor="middle" x="2847" y="-62.6" font-family="Times,serif" font-size="14.00">AppComponent</text>
</g>
<!-- AppModule -->
<g id="node16" class="node">
<title>AppModule</title>
<polygon fill="#8dd3c7" stroke="black" points="1706.66,-149.8 1703.66,-153.8 1682.66,-153.8 1679.66,-149.8 1623.34,-149.8 1623.34,-113.8 1706.66,-113.8 1706.66,-149.8"/>
<text text-anchor="middle" x="1665" y="-127.6" font-family="Times,serif" font-size="14.00">AppModule</text>
</g>
<!-- AppComponent&#45;&gt;AppModule -->
<g id="edge1" class="edge">
<title>AppComponent&#45;&gt;AppModule</title>
<path fill="none" stroke="black" d="M2847,-85.09C2847,-107.01 2847,-140.8 2847,-140.8 2847,-140.8 1716.72,-140.8 1716.72,-140.8"/>
<polygon fill="black" stroke="black" points="1716.72,-137.3 1706.72,-140.8 1716.72,-144.3 1716.72,-137.3"/>
</g>
<!-- CardForMainComponent -->
<g id="node2" class="node">
<title>CardForMainComponent</title>
<polygon fill="#ffffb3" stroke="black" points="2776.54,-84.8 2619.46,-84.8 2619.46,-48.8 2776.54,-48.8 2776.54,-84.8"/>
<text text-anchor="middle" x="2698" y="-62.6" font-family="Times,serif" font-size="14.00">CardForMainComponent</text>
</g>
<!-- CardForMainComponent&#45;&gt;AppModule -->
<g id="edge2" class="edge">
<title>CardForMainComponent&#45;&gt;AppModule</title>
<path fill="none" stroke="black" d="M2698,-84.83C2698,-105.57 2698,-136.8 2698,-136.8 2698,-136.8 1716.77,-136.8 1716.77,-136.8"/>
<polygon fill="black" stroke="black" points="1716.77,-133.3 1706.77,-136.8 1716.77,-140.3 1716.77,-133.3"/>
</g>
<!-- CardForShoppinglistComponent -->
<g id="node3" class="node">
<title>CardForShoppinglistComponent</title>
<polygon fill="#ffffb3" stroke="black" points="2601.28,-84.8 2402.72,-84.8 2402.72,-48.8 2601.28,-48.8 2601.28,-84.8"/>
<text text-anchor="middle" x="2502" y="-62.6" font-family="Times,serif" font-size="14.00">CardForShoppinglistComponent</text>
</g>
<!-- CardForShoppinglistComponent&#45;&gt;AppModule -->
<g id="edge3" class="edge">
<title>CardForShoppinglistComponent&#45;&gt;AppModule</title>
<path fill="none" stroke="black" d="M2502,-84.91C2502,-104.14 2502,-131.8 2502,-131.8 2502,-131.8 1716.79,-131.8 1716.79,-131.8"/>
<polygon fill="black" stroke="black" points="1716.79,-128.3 1706.79,-131.8 1716.79,-135.3 1716.79,-128.3"/>
</g>
<!-- CardsForFavoritsComponent -->
<g id="node4" class="node">
<title>CardsForFavoritsComponent</title>
<polygon fill="#ffffb3" stroke="black" points="2384.82,-84.8 2205.18,-84.8 2205.18,-48.8 2384.82,-48.8 2384.82,-84.8"/>
<text text-anchor="middle" x="2295" y="-62.6" font-family="Times,serif" font-size="14.00">CardsForFavoritsComponent</text>
</g>
<!-- CardsForFavoritsComponent&#45;&gt;AppModule -->
<g id="edge4" class="edge">
<title>CardsForFavoritsComponent&#45;&gt;AppModule</title>
<path fill="none" stroke="black" d="M2295,-85.1C2295,-103.07 2295,-127.8 2295,-127.8 2295,-127.8 1716.82,-127.8 1716.82,-127.8"/>
<polygon fill="black" stroke="black" points="1716.82,-124.3 1706.82,-127.8 1716.82,-131.3 1716.82,-124.3"/>
</g>
<!-- FavoritsCreateComponent -->
<g id="node5" class="node">
<title>FavoritsCreateComponent</title>
<polygon fill="#ffffb3" stroke="black" points="2186.75,-84.8 2023.25,-84.8 2023.25,-48.8 2186.75,-48.8 2186.75,-84.8"/>
<text text-anchor="middle" x="2105" y="-62.6" font-family="Times,serif" font-size="14.00">FavoritsCreateComponent</text>
</g>
<!-- FavoritsCreateComponent&#45;&gt;AppModule -->
<g id="edge5" class="edge">
<title>FavoritsCreateComponent&#45;&gt;AppModule</title>
<path fill="none" stroke="black" d="M2105,-84.83C2105,-101.2 2105,-122.8 2105,-122.8 2105,-122.8 1716.79,-122.8 1716.79,-122.8"/>
<polygon fill="black" stroke="black" points="1716.79,-119.3 1706.79,-122.8 1716.79,-126.3 1716.79,-119.3"/>
</g>
<!-- FavoritsScreenComponent -->
<g id="node6" class="node">
<title>FavoritsScreenComponent</title>
<polygon fill="#ffffb3" stroke="black" points="2004.8,-84.8 1839.2,-84.8 1839.2,-48.8 2004.8,-48.8 2004.8,-84.8"/>
<text text-anchor="middle" x="1922" y="-62.6" font-family="Times,serif" font-size="14.00">FavoritsScreenComponent</text>
</g>
<!-- FavoritsScreenComponent&#45;&gt;AppModule -->
<g id="edge6" class="edge">
<title>FavoritsScreenComponent&#45;&gt;AppModule</title>
<path fill="none" stroke="black" d="M1922,-84.99C1922,-99.98 1922,-118.8 1922,-118.8 1922,-118.8 1716.86,-118.8 1716.86,-118.8"/>
<polygon fill="black" stroke="black" points="1716.86,-115.3 1706.86,-118.8 1716.86,-122.3 1716.86,-115.3"/>
</g>
<!-- MainScreenComponent -->
<g id="node7" class="node">
<title>MainScreenComponent</title>
<polygon fill="#ffffb3" stroke="black" points="1821.47,-84.8 1672.53,-84.8 1672.53,-48.8 1821.47,-48.8 1821.47,-84.8"/>
<text text-anchor="middle" x="1747" y="-62.6" font-family="Times,serif" font-size="14.00">MainScreenComponent</text>
</g>
<!-- MainScreenComponent&#45;&gt;AppModule -->
<g id="edge7" class="edge">
<title>MainScreenComponent&#45;&gt;AppModule</title>
<path fill="none" stroke="black" d="M1689.67,-84.91C1689.67,-84.91 1689.67,-103.79 1689.67,-103.79"/>
<polygon fill="black" stroke="black" points="1686.17,-103.79 1689.67,-113.79 1693.17,-103.79 1686.17,-103.79"/>
</g>
<!-- NavigationComponent -->
<g id="node8" class="node">
<title>NavigationComponent</title>
<polygon fill="#ffffb3" stroke="black" points="1654.54,-84.8 1511.46,-84.8 1511.46,-48.8 1654.54,-48.8 1654.54,-84.8"/>
<text text-anchor="middle" x="1583" y="-62.6" font-family="Times,serif" font-size="14.00">NavigationComponent</text>
</g>
<!-- NavigationComponent&#45;&gt;AppModule -->
<g id="edge8" class="edge">
<title>NavigationComponent&#45;&gt;AppModule</title>
<path fill="none" stroke="black" d="M1638.97,-84.91C1638.97,-84.91 1638.97,-103.79 1638.97,-103.79"/>
<polygon fill="black" stroke="black" points="1635.47,-103.79 1638.97,-113.79 1642.47,-103.79 1635.47,-103.79"/>
</g>
<!-- ProductDetailviewComponent -->
<g id="node9" class="node">
<title>ProductDetailviewComponent</title>
<polygon fill="#ffffb3" stroke="black" points="1493.3,-84.8 1306.7,-84.8 1306.7,-48.8 1493.3,-48.8 1493.3,-84.8"/>
<text text-anchor="middle" x="1400" y="-62.6" font-family="Times,serif" font-size="14.00">ProductDetailviewComponent</text>
</g>
<!-- ProductDetailviewComponent&#45;&gt;AppModule -->
<g id="edge9" class="edge">
<title>ProductDetailviewComponent&#45;&gt;AppModule</title>
<path fill="none" stroke="black" d="M1400,-84.99C1400,-99.98 1400,-118.8 1400,-118.8 1400,-118.8 1613.3,-118.8 1613.3,-118.8"/>
<polygon fill="black" stroke="black" points="1613.3,-122.3 1623.3,-118.8 1613.3,-115.3 1613.3,-122.3"/>
</g>
<!-- SettingComponent -->
<g id="node10" class="node">
<title>SettingComponent</title>
<polygon fill="#ffffb3" stroke="black" points="1288.5,-84.8 1167.5,-84.8 1167.5,-48.8 1288.5,-48.8 1288.5,-84.8"/>
<text text-anchor="middle" x="1228" y="-62.6" font-family="Times,serif" font-size="14.00">SettingComponent</text>
</g>
<!-- SettingComponent&#45;&gt;AppModule -->
<g id="edge10" class="edge">
<title>SettingComponent&#45;&gt;AppModule</title>
<path fill="none" stroke="black" d="M1228,-84.83C1228,-101.2 1228,-122.8 1228,-122.8 1228,-122.8 1613.1,-122.8 1613.1,-122.8"/>
<polygon fill="black" stroke="black" points="1613.1,-126.3 1623.1,-122.8 1613.1,-119.3 1613.1,-126.3"/>
</g>
<!-- ShoppinglistDetailsComponent -->
<g id="node11" class="node">
<title>ShoppinglistDetailsComponent</title>
<polygon fill="#ffffb3" stroke="black" points="1149.77,-84.8 958.23,-84.8 958.23,-48.8 1149.77,-48.8 1149.77,-84.8"/>
<text text-anchor="middle" x="1054" y="-62.6" font-family="Times,serif" font-size="14.00">ShoppinglistDetailsComponent</text>
</g>
<!-- ShoppinglistDetailsComponent&#45;&gt;AppModule -->
<g id="edge11" class="edge">
<title>ShoppinglistDetailsComponent&#45;&gt;AppModule</title>
<path fill="none" stroke="black" d="M1054,-85.1C1054,-103.07 1054,-127.8 1054,-127.8 1054,-127.8 1613,-127.8 1613,-127.8"/>
<polygon fill="black" stroke="black" points="1613,-131.3 1623,-127.8 1613,-124.3 1613,-131.3"/>
</g>
<!-- ShoppinglistScreenComponent -->
<g id="node12" class="node">
<title>ShoppinglistScreenComponent</title>
<polygon fill="#ffffb3" stroke="black" points="940.21,-84.8 749.79,-84.8 749.79,-48.8 940.21,-48.8 940.21,-84.8"/>
<text text-anchor="middle" x="845" y="-62.6" font-family="Times,serif" font-size="14.00">ShoppinglistScreenComponent</text>
</g>
<!-- ShoppinglistScreenComponent&#45;&gt;AppModule -->
<g id="edge12" class="edge">
<title>ShoppinglistScreenComponent&#45;&gt;AppModule</title>
<path fill="none" stroke="black" d="M845,-84.91C845,-104.14 845,-131.8 845,-131.8 845,-131.8 1613.21,-131.8 1613.21,-131.8"/>
<polygon fill="black" stroke="black" points="1613.21,-135.3 1623.21,-131.8 1613.21,-128.3 1613.21,-135.3"/>
</g>
<!-- SubmenuCardforfavoritsComponent -->
<g id="node13" class="node">
<title>SubmenuCardforfavoritsComponent</title>
<polygon fill="#ffffb3" stroke="black" points="732.02,-84.8 511.98,-84.8 511.98,-48.8 732.02,-48.8 732.02,-84.8"/>
<text text-anchor="middle" x="622" y="-62.6" font-family="Times,serif" font-size="14.00">SubmenuCardforfavoritsComponent</text>
</g>
<!-- SubmenuCardforfavoritsComponent&#45;&gt;AppModule -->
<g id="edge13" class="edge">
<title>SubmenuCardforfavoritsComponent&#45;&gt;AppModule</title>
<path fill="none" stroke="black" d="M622,-84.83C622,-105.57 622,-136.8 622,-136.8 622,-136.8 1613.15,-136.8 1613.15,-136.8"/>
<polygon fill="black" stroke="black" points="1613.15,-140.3 1623.15,-136.8 1613.15,-133.3 1613.15,-140.3"/>
</g>
<!-- SubmenuCardformainComponent -->
<g id="node14" class="node">
<title>SubmenuCardformainComponent</title>
<polygon fill="#ffffb3" stroke="black" points="493.75,-84.8 288.25,-84.8 288.25,-48.8 493.75,-48.8 493.75,-84.8"/>
<text text-anchor="middle" x="391" y="-62.6" font-family="Times,serif" font-size="14.00">SubmenuCardformainComponent</text>
</g>
<!-- SubmenuCardformainComponent&#45;&gt;AppModule -->
<g id="edge14" class="edge">
<title>SubmenuCardformainComponent&#45;&gt;AppModule</title>
<path fill="none" stroke="black" d="M391,-85.09C391,-107.01 391,-140.8 391,-140.8 391,-140.8 1613.34,-140.8 1613.34,-140.8"/>
<polygon fill="black" stroke="black" points="1613.34,-144.3 1623.34,-140.8 1613.34,-137.3 1613.34,-144.3"/>
</g>
<!-- SubmenuCardforshoppinglistComponent -->
<g id="node15" class="node">
<title>SubmenuCardforshoppinglistComponent</title>
<polygon fill="#ffffb3" stroke="black" points="270.2,-84.8 23.8,-84.8 23.8,-48.8 270.2,-48.8 270.2,-84.8"/>
<text text-anchor="middle" x="147" y="-62.6" font-family="Times,serif" font-size="14.00">SubmenuCardforshoppinglistComponent</text>
</g>
<!-- SubmenuCardforshoppinglistComponent&#45;&gt;AppModule -->
<g id="edge15" class="edge">
<title>SubmenuCardforshoppinglistComponent&#45;&gt;AppModule</title>
<path fill="none" stroke="black" d="M147,-85.12C147,-108.46 147,-145.8 147,-145.8 147,-145.8 1613.21,-145.8 1613.21,-145.8"/>
<polygon fill="black" stroke="black" points="1613.21,-149.3 1623.21,-145.8 1613.21,-142.3 1613.21,-149.3"/>
</g>
<!-- AppComponent  -->
<g id="node18" class="node">
<title>AppComponent </title>
<polygon fill="#80b1d3" stroke="black" points="1719.44,-214.8 1610.56,-214.8 1610.56,-178.8 1719.44,-178.8 1719.44,-214.8"/>
<text text-anchor="middle" x="1665" y="-192.6" font-family="Times,serif" font-size="14.00">AppComponent </text>
</g>
<!-- AppModule&#45;&gt;AppComponent  -->
<g id="edge17" class="edge">
<title>AppModule&#45;&gt;AppComponent </title>
<path fill="none" stroke="black" stroke-dasharray="1,5" d="M1665,-149.91C1665,-149.91 1665,-168.79 1665,-168.79"/>
<polygon fill="black" stroke="black" points="1661.5,-168.79 1665,-178.79 1668.5,-168.79 1661.5,-168.79"/>
</g>
<!-- AppRoutingModule -->
<g id="node17" class="node">
<title>AppRoutingModule</title>
<polygon fill="#8dd3c7" stroke="black" points="3052.27,-84.8 3049.27,-88.8 3028.27,-88.8 3025.27,-84.8 2923.73,-84.8 2923.73,-48.8 3052.27,-48.8 3052.27,-84.8"/>
<text text-anchor="middle" x="2988" y="-62.6" font-family="Times,serif" font-size="14.00">AppRoutingModule</text>
</g>
<!-- AppRoutingModule&#45;&gt;AppModule -->
<g id="edge16" class="edge">
<title>AppRoutingModule&#45;&gt;AppModule</title>
<path fill="none" stroke="black" d="M2988,-85.12C2988,-108.46 2988,-145.8 2988,-145.8 2988,-145.8 1716.78,-145.8 1716.78,-145.8"/>
<polygon fill="black" stroke="black" points="1716.78,-142.3 1706.78,-145.8 1716.78,-149.3 1716.78,-142.3"/>
</g>
</g>
</svg>
