<?xml version="1.0" encoding="UTF-8" standalone="no"?>
<!DOCTYPE svg PUBLIC "-//W3C//DTD SVG 1.1//EN"
 "http://www.w3.org/Graphics/SVG/1.1/DTD/svg11.dtd">
<!-- Generated by graphviz version 2.47.3 (20210619.1520)
 -->
<!-- Title: dependencies Pages: 1 -->
<svg width="2784pt" height="247pt"
 viewBox="0.00 0.00 2784.00 246.80" xmlns="http://www.w3.org/2000/svg" xmlns:xlink="http://www.w3.org/1999/xlink">
<g id="graph0" class="graph" transform="scale(1 1) rotate(0) translate(4 242.8)">
<title>dependencies</title>
<polygon fill="white" stroke="transparent" points="-4,4 -4,-242.8 2780,-242.8 2780,4 -4,4"/>
<text text-anchor="middle" x="1388" y="-8.2" font-family="sans-serif" font-size="14.00">dependencies</text>
<g id="clust1" class="cluster">
<title>cluster_AppModule</title>
<polygon fill="none" stroke="black" stroke-dasharray="1,5" points="8,-32.8 8,-230.8 2768,-230.8 2768,-32.8 8,-32.8"/>
</g>
<g id="clust2" class="cluster">
<title>cluster_AppModule_declarations</title>
<polygon fill="none" stroke="black" points="168,-40.8 168,-92.8 2760,-92.8 2760,-40.8 168,-40.8"/>
</g>
<g id="clust16" class="cluster">
<title>cluster_AppModule_imports</title>
<polygon fill="none" stroke="black" points="16,-40.8 16,-92.8 160,-92.8 160,-40.8 16,-40.8"/>
</g>
<g id="clust18" class="cluster">
<title>cluster_AppModule_bootstrap</title>
<polygon fill="none" stroke="black" points="1444,-170.8 1444,-222.8 1568,-222.8 1568,-170.8 1444,-170.8"/>
</g>
<!-- AppComponent -->
<g id="node1" class="node">
<title>AppComponent</title>
<polygon fill="#ffffb3" stroke="black" points="2751.94,-84.8 2646.06,-84.8 2646.06,-48.8 2751.94,-48.8 2751.94,-84.8"/>
<text text-anchor="middle" x="2699" y="-62.6" font-family="Times,serif" font-size="14.00">AppComponent</text>
</g>
<!-- AppModule -->
<g id="node14" class="node">
<title>AppModule</title>
<polygon fill="#8dd3c7" stroke="black" points="1547.66,-149.8 1544.66,-153.8 1523.66,-153.8 1520.66,-149.8 1464.34,-149.8 1464.34,-113.8 1547.66,-113.8 1547.66,-149.8"/>
<text text-anchor="middle" x="1506" y="-127.6" font-family="Times,serif" font-size="14.00">AppModule</text>
</g>
<!-- AppComponent&#45;&gt;AppModule -->
<g id="edge1" class="edge">
<title>AppComponent&#45;&gt;AppModule</title>
<path fill="none" stroke="black" d="M2699,-84.89C2699,-107.93 2699,-144.8 2699,-144.8 2699,-144.8 1557.76,-144.8 1557.76,-144.8"/>
<polygon fill="black" stroke="black" points="1557.76,-141.3 1547.76,-144.8 1557.76,-148.3 1557.76,-141.3"/>
</g>
<!-- CardForMainComponent -->
<g id="node2" class="node">
<title>CardForMainComponent</title>
<polygon fill="#ffffb3" stroke="black" points="2628.54,-84.8 2471.46,-84.8 2471.46,-48.8 2628.54,-48.8 2628.54,-84.8"/>
<text text-anchor="middle" x="2550" y="-62.6" font-family="Times,serif" font-size="14.00">CardForMainComponent</text>
</g>
<!-- CardForMainComponent&#45;&gt;AppModule -->
<g id="edge2" class="edge">
<title>CardForMainComponent&#45;&gt;AppModule</title>
<path fill="none" stroke="black" d="M2550,-84.84C2550,-106.46 2550,-139.8 2550,-139.8 2550,-139.8 1557.89,-139.8 1557.89,-139.8"/>
<polygon fill="black" stroke="black" points="1557.89,-136.3 1547.89,-139.8 1557.89,-143.3 1557.89,-136.3"/>
</g>
<!-- CardForShoppinglistComponent -->
<g id="node3" class="node">
<title>CardForShoppinglistComponent</title>
<polygon fill="#ffffb3" stroke="black" points="2453.28,-84.8 2254.72,-84.8 2254.72,-48.8 2453.28,-48.8 2453.28,-84.8"/>
<text text-anchor="middle" x="2354" y="-62.6" font-family="Times,serif" font-size="14.00">CardForShoppinglistComponent</text>
</g>
<!-- CardForShoppinglistComponent&#45;&gt;AppModule -->
<g id="edge3" class="edge">
<title>CardForShoppinglistComponent&#45;&gt;AppModule</title>
<path fill="none" stroke="black" d="M2354,-85.02C2354,-105.17 2354,-134.8 2354,-134.8 2354,-134.8 1557.76,-134.8 1557.76,-134.8"/>
<polygon fill="black" stroke="black" points="1557.76,-131.3 1547.76,-134.8 1557.76,-138.3 1557.76,-131.3"/>
</g>
<!-- CardsForFavoritsComponent -->
<g id="node4" class="node">
<title>CardsForFavoritsComponent</title>
<polygon fill="#ffffb3" stroke="black" points="2236.82,-84.8 2057.18,-84.8 2057.18,-48.8 2236.82,-48.8 2236.82,-84.8"/>
<text text-anchor="middle" x="2147" y="-62.6" font-family="Times,serif" font-size="14.00">CardsForFavoritsComponent</text>
</g>
<!-- CardsForFavoritsComponent&#45;&gt;AppModule -->
<g id="edge4" class="edge">
<title>CardsForFavoritsComponent&#45;&gt;AppModule</title>
<path fill="none" stroke="black" d="M2147,-85.02C2147,-103.63 2147,-129.8 2147,-129.8 2147,-129.8 1558.06,-129.8 1558.06,-129.8"/>
<polygon fill="black" stroke="black" points="1558.06,-126.3 1548.06,-129.8 1558.06,-133.3 1558.06,-126.3"/>
</g>
<!-- FavoritsCreateComponent -->
<g id="node5" class="node">
<title>FavoritsCreateComponent</title>
<polygon fill="#ffffb3" stroke="black" points="2038.75,-84.8 1875.25,-84.8 1875.25,-48.8 2038.75,-48.8 2038.75,-84.8"/>
<text text-anchor="middle" x="1957" y="-62.6" font-family="Times,serif" font-size="14.00">FavoritsCreateComponent</text>
</g>
<!-- FavoritsCreateComponent&#45;&gt;AppModule -->
<g id="edge5" class="edge">
<title>FavoritsCreateComponent&#45;&gt;AppModule</title>
<path fill="none" stroke="black" d="M1957,-84.83C1957,-101.86 1957,-124.8 1957,-124.8 1957,-124.8 1558.02,-124.8 1558.02,-124.8"/>
<polygon fill="black" stroke="black" points="1558.02,-121.3 1548.02,-124.8 1558.02,-128.3 1558.02,-121.3"/>
</g>
<!-- FavoritsScreenComponent -->
<g id="node6" class="node">
<title>FavoritsScreenComponent</title>
<polygon fill="#ffffb3" stroke="black" points="1856.8,-84.8 1691.2,-84.8 1691.2,-48.8 1856.8,-48.8 1856.8,-84.8"/>
<text text-anchor="middle" x="1774" y="-62.6" font-family="Times,serif" font-size="14.00">FavoritsScreenComponent</text>
</g>
<!-- FavoritsScreenComponent&#45;&gt;AppModule -->
<g id="edge6" class="edge">
<title>FavoritsScreenComponent&#45;&gt;AppModule</title>
<path fill="none" stroke="black" d="M1774,-85.04C1774,-100.37 1774,-119.8 1774,-119.8 1774,-119.8 1557.88,-119.8 1557.88,-119.8"/>
<polygon fill="black" stroke="black" points="1557.88,-116.3 1547.88,-119.8 1557.87,-123.3 1557.88,-116.3"/>
</g>
<!-- MainScreenComponent -->
<g id="node7" class="node">
<title>MainScreenComponent</title>
<polygon fill="#ffffb3" stroke="black" points="1673.47,-84.8 1524.53,-84.8 1524.53,-48.8 1673.47,-48.8 1673.47,-84.8"/>
<text text-anchor="middle" x="1599" y="-62.6" font-family="Times,serif" font-size="14.00">MainScreenComponent</text>
</g>
<!-- MainScreenComponent&#45;&gt;AppModule -->
<g id="edge7" class="edge">
<title>MainScreenComponent&#45;&gt;AppModule</title>
<path fill="none" stroke="black" d="M1536.17,-84.91C1536.17,-84.91 1536.17,-103.79 1536.17,-103.79"/>
<polygon fill="black" stroke="black" points="1532.67,-103.79 1536.17,-113.79 1539.67,-103.79 1532.67,-103.79"/>
</g>
<!-- ProductDetailviewComponent -->
<g id="node8" class="node">
<title>ProductDetailviewComponent</title>
<polygon fill="#ffffb3" stroke="black" points="1506.3,-84.8 1319.7,-84.8 1319.7,-48.8 1506.3,-48.8 1506.3,-84.8"/>
<text text-anchor="middle" x="1413" y="-62.6" font-family="Times,serif" font-size="14.00">ProductDetailviewComponent</text>
</g>
<!-- ProductDetailviewComponent&#45;&gt;AppModule -->
<g id="edge8" class="edge">
<title>ProductDetailviewComponent&#45;&gt;AppModule</title>
<path fill="none" stroke="black" d="M1485.16,-84.91C1485.16,-84.91 1485.16,-103.79 1485.16,-103.79"/>
<polygon fill="black" stroke="black" points="1481.66,-103.79 1485.16,-113.79 1488.66,-103.79 1481.66,-103.79"/>
</g>
<!-- ShoppinglistDetailsComponent -->
<g id="node9" class="node">
<title>ShoppinglistDetailsComponent</title>
<polygon fill="#ffffb3" stroke="black" points="1301.77,-84.8 1110.23,-84.8 1110.23,-48.8 1301.77,-48.8 1301.77,-84.8"/>
<text text-anchor="middle" x="1206" y="-62.6" font-family="Times,serif" font-size="14.00">ShoppinglistDetailsComponent</text>
</g>
<!-- ShoppinglistDetailsComponent&#45;&gt;AppModule -->
<g id="edge9" class="edge">
<title>ShoppinglistDetailsComponent&#45;&gt;AppModule</title>
<path fill="none" stroke="black" d="M1206,-85.04C1206,-100.37 1206,-119.8 1206,-119.8 1206,-119.8 1454.29,-119.8 1454.29,-119.8"/>
<polygon fill="black" stroke="black" points="1454.29,-123.3 1464.29,-119.8 1454.29,-116.3 1454.29,-123.3"/>
</g>
<!-- ShoppinglistScreenComponent -->
<g id="node10" class="node">
<title>ShoppinglistScreenComponent</title>
<polygon fill="#ffffb3" stroke="black" points="1092.21,-84.8 901.79,-84.8 901.79,-48.8 1092.21,-48.8 1092.21,-84.8"/>
<text text-anchor="middle" x="997" y="-62.6" font-family="Times,serif" font-size="14.00">ShoppinglistScreenComponent</text>
</g>
<!-- ShoppinglistScreenComponent&#45;&gt;AppModule -->
<g id="edge10" class="edge">
<title>ShoppinglistScreenComponent&#45;&gt;AppModule</title>
<path fill="none" stroke="black" d="M997,-84.83C997,-101.86 997,-124.8 997,-124.8 997,-124.8 1453.91,-124.8 1453.91,-124.8"/>
<polygon fill="black" stroke="black" points="1453.91,-128.3 1463.91,-124.8 1453.91,-121.3 1453.91,-128.3"/>
</g>
<!-- SubmenuCardforfavoritsComponent -->
<g id="node11" class="node">
<title>SubmenuCardforfavoritsComponent</title>
<polygon fill="#ffffb3" stroke="black" points="884.02,-84.8 663.98,-84.8 663.98,-48.8 884.02,-48.8 884.02,-84.8"/>
<text text-anchor="middle" x="774" y="-62.6" font-family="Times,serif" font-size="14.00">SubmenuCardforfavoritsComponent</text>
</g>
<!-- SubmenuCardforfavoritsComponent&#45;&gt;AppModule -->
<g id="edge11" class="edge">
<title>SubmenuCardforfavoritsComponent&#45;&gt;AppModule</title>
<path fill="none" stroke="black" d="M774,-85.02C774,-103.63 774,-129.8 774,-129.8 774,-129.8 1454.28,-129.8 1454.28,-129.8"/>
<polygon fill="black" stroke="black" points="1454.28,-133.3 1464.28,-129.8 1454.28,-126.3 1454.28,-133.3"/>
</g>
<!-- SubmenuCardformainComponent -->
<g id="node12" class="node">
<title>SubmenuCardformainComponent</title>
<polygon fill="#ffffb3" stroke="black" points="645.75,-84.8 440.25,-84.8 440.25,-48.8 645.75,-48.8 645.75,-84.8"/>
<text text-anchor="middle" x="543" y="-62.6" font-family="Times,serif" font-size="14.00">SubmenuCardformainComponent</text>
</g>
<!-- SubmenuCardformainComponent&#45;&gt;AppModule -->
<g id="edge12" class="edge">
<title>SubmenuCardformainComponent&#45;&gt;AppModule</title>
<path fill="none" stroke="black" d="M543,-85.02C543,-105.17 543,-134.8 543,-134.8 543,-134.8 1454.31,-134.8 1454.31,-134.8"/>
<polygon fill="black" stroke="black" points="1454.31,-138.3 1464.31,-134.8 1454.31,-131.3 1454.31,-138.3"/>
</g>
<!-- SubmenuCardforshoppinglistComponent -->
<g id="node13" class="node">
<title>SubmenuCardforshoppinglistComponent</title>
<polygon fill="#ffffb3" stroke="black" points="422.2,-84.8 175.8,-84.8 175.8,-48.8 422.2,-48.8 422.2,-84.8"/>
<text text-anchor="middle" x="299" y="-62.6" font-family="Times,serif" font-size="14.00">SubmenuCardforshoppinglistComponent</text>
</g>
<!-- SubmenuCardforshoppinglistComponent&#45;&gt;AppModule -->
<g id="edge13" class="edge">
<title>SubmenuCardforshoppinglistComponent&#45;&gt;AppModule</title>
<path fill="none" stroke="black" d="M299,-84.84C299,-106.46 299,-139.8 299,-139.8 299,-139.8 1454.1,-139.8 1454.1,-139.8"/>
<polygon fill="black" stroke="black" points="1454.1,-143.3 1464.1,-139.8 1454.1,-136.3 1454.1,-143.3"/>
</g>
<!-- AppComponent  -->
<g id="node16" class="node">
<title>AppComponent </title>
<polygon fill="#80b1d3" stroke="black" points="1560.44,-214.8 1451.56,-214.8 1451.56,-178.8 1560.44,-178.8 1560.44,-214.8"/>
<text text-anchor="middle" x="1506" y="-192.6" font-family="Times,serif" font-size="14.00">AppComponent </text>
</g>
<!-- AppModule&#45;&gt;AppComponent  -->
<g id="edge15" class="edge">
<title>AppModule&#45;&gt;AppComponent </title>
<path fill="none" stroke="black" stroke-dasharray="1,5" d="M1506,-149.91C1506,-149.91 1506,-168.79 1506,-168.79"/>
<polygon fill="black" stroke="black" points="1502.5,-168.79 1506,-178.79 1509.5,-168.79 1502.5,-168.79"/>
</g>
<!-- AppRoutingModule -->
<g id="node15" class="node">
<title>AppRoutingModule</title>
<polygon fill="#8dd3c7" stroke="black" points="152.27,-84.8 149.27,-88.8 128.27,-88.8 125.27,-84.8 23.73,-84.8 23.73,-48.8 152.27,-48.8 152.27,-84.8"/>
<text text-anchor="middle" x="88" y="-62.6" font-family="Times,serif" font-size="14.00">AppRoutingModule</text>
</g>
<!-- AppRoutingModule&#45;&gt;AppModule -->
<g id="edge14" class="edge">
<title>AppRoutingModule&#45;&gt;AppModule</title>
<path fill="none" stroke="black" d="M88,-84.89C88,-107.93 88,-144.8 88,-144.8 88,-144.8 1454.33,-144.8 1454.33,-144.8"/>
<polygon fill="black" stroke="black" points="1454.33,-148.3 1464.33,-144.8 1454.33,-141.3 1454.33,-148.3"/>
</g>
</g>
</svg>
