<?xml version="1.0" encoding="UTF-8" standalone="no"?>
<!DOCTYPE svg PUBLIC "-//W3C//DTD SVG 1.1//EN"
 "http://www.w3.org/Graphics/SVG/1.1/DTD/svg11.dtd">
<!-- Generated by graphviz version 2.47.3 (20210619.1520)
 -->
<!-- Title: dependencies Pages: 1 -->
<svg width="3084pt" height="247pt"
 viewBox="0.00 0.00 3084.00 246.80" xmlns="http://www.w3.org/2000/svg" xmlns:xlink="http://www.w3.org/1999/xlink">
<g id="graph0" class="graph" transform="scale(1 1) rotate(0) translate(4 242.8)">
<title>dependencies</title>
<polygon fill="white" stroke="transparent" points="-4,4 -4,-242.8 3080,-242.8 3080,4 -4,4"/>
<text text-anchor="middle" x="1538" y="-8.2" font-family="sans-serif" font-size="14.00">dependencies</text>
<g id="clust1" class="cluster">
<title>cluster_AppModule</title>
<polygon fill="none" stroke="black" stroke-dasharray="1,5" points="8,-32.8 8,-230.8 3068,-230.8 3068,-32.8 8,-32.8"/>
</g>
<g id="clust2" class="cluster">
<title>cluster_AppModule_declarations</title>
<polygon fill="none" stroke="black" points="168,-40.8 168,-92.8 3060,-92.8 3060,-40.8 168,-40.8"/>
</g>
<g id="clust18" class="cluster">
<title>cluster_AppModule_imports</title>
<polygon fill="none" stroke="black" points="16,-40.8 16,-92.8 160,-92.8 160,-40.8 16,-40.8"/>
</g>
<g id="clust20" class="cluster">
<title>cluster_AppModule_bootstrap</title>
<polygon fill="none" stroke="black" points="1581,-170.8 1581,-222.8 1705,-222.8 1705,-170.8 1581,-170.8"/>
</g>
<!-- AppComponent -->
<g id="node1" class="node">
<title>AppComponent</title>
<polygon fill="#ffffb3" stroke="black" points="3051.94,-84.8 2946.06,-84.8 2946.06,-48.8 3051.94,-48.8 3051.94,-84.8"/>
<text text-anchor="middle" x="2999" y="-62.6" font-family="Times,serif" font-size="14.00">AppComponent</text>
</g>
<!-- AppModule -->
<g id="node16" class="node">
<title>AppModule</title>
<polygon fill="#8dd3c7" stroke="black" points="1684.66,-149.8 1681.66,-153.8 1660.66,-153.8 1657.66,-149.8 1601.34,-149.8 1601.34,-113.8 1684.66,-113.8 1684.66,-149.8"/>
<text text-anchor="middle" x="1643" y="-127.6" font-family="Times,serif" font-size="14.00">AppModule</text>
</g>
<!-- AppComponent&#45;&gt;AppModule -->
<g id="edge1" class="edge">
<title>AppComponent&#45;&gt;AppModule</title>
<path fill="none" stroke="black" d="M2999,-85.12C2999,-108.46 2999,-145.8 2999,-145.8 2999,-145.8 1694.7,-145.8 1694.7,-145.8"/>
<polygon fill="black" stroke="black" points="1694.7,-142.3 1684.7,-145.8 1694.7,-149.3 1694.7,-142.3"/>
</g>
<!-- CardForMainComponent -->
<g id="node2" class="node">
<title>CardForMainComponent</title>
<polygon fill="#ffffb3" stroke="black" points="2928.54,-84.8 2771.46,-84.8 2771.46,-48.8 2928.54,-48.8 2928.54,-84.8"/>
<text text-anchor="middle" x="2850" y="-62.6" font-family="Times,serif" font-size="14.00">CardForMainComponent</text>
</g>
<!-- CardForMainComponent&#45;&gt;AppModule -->
<g id="edge2" class="edge">
<title>CardForMainComponent&#45;&gt;AppModule</title>
<path fill="none" stroke="black" d="M2850,-85.09C2850,-107.01 2850,-140.8 2850,-140.8 2850,-140.8 1694.9,-140.8 1694.9,-140.8"/>
<polygon fill="black" stroke="black" points="1694.9,-137.3 1684.9,-140.8 1694.9,-144.3 1694.9,-137.3"/>
</g>
<!-- CardForShoppinglistComponent -->
<g id="node3" class="node">
<title>CardForShoppinglistComponent</title>
<polygon fill="#ffffb3" stroke="black" points="2753.28,-84.8 2554.72,-84.8 2554.72,-48.8 2753.28,-48.8 2753.28,-84.8"/>
<text text-anchor="middle" x="2654" y="-62.6" font-family="Times,serif" font-size="14.00">CardForShoppinglistComponent</text>
</g>
<!-- CardForShoppinglistComponent&#45;&gt;AppModule -->
<g id="edge3" class="edge">
<title>CardForShoppinglistComponent&#45;&gt;AppModule</title>
<path fill="none" stroke="black" d="M2654,-84.83C2654,-105.57 2654,-136.8 2654,-136.8 2654,-136.8 1694.84,-136.8 1694.84,-136.8"/>
<polygon fill="black" stroke="black" points="1694.84,-133.3 1684.84,-136.8 1694.84,-140.3 1694.84,-133.3"/>
</g>
<!-- CardsForFavoritsComponent -->
<g id="node4" class="node">
<title>CardsForFavoritsComponent</title>
<polygon fill="#ffffb3" stroke="black" points="2536.82,-84.8 2357.18,-84.8 2357.18,-48.8 2536.82,-48.8 2536.82,-84.8"/>
<text text-anchor="middle" x="2447" y="-62.6" font-family="Times,serif" font-size="14.00">CardsForFavoritsComponent</text>
</g>
<!-- CardsForFavoritsComponent&#45;&gt;AppModule -->
<g id="edge4" class="edge">
<title>CardsForFavoritsComponent&#45;&gt;AppModule</title>
<path fill="none" stroke="black" d="M2447,-84.91C2447,-104.14 2447,-131.8 2447,-131.8 2447,-131.8 1694.81,-131.8 1694.81,-131.8"/>
<polygon fill="black" stroke="black" points="1694.81,-128.3 1684.81,-131.8 1694.81,-135.3 1694.81,-128.3"/>
</g>
<!-- FavoritsCreateComponent -->
<g id="node5" class="node">
<title>FavoritsCreateComponent</title>
<polygon fill="#ffffb3" stroke="black" points="2338.75,-84.8 2175.25,-84.8 2175.25,-48.8 2338.75,-48.8 2338.75,-84.8"/>
<text text-anchor="middle" x="2257" y="-62.6" font-family="Times,serif" font-size="14.00">FavoritsCreateComponent</text>
</g>
<!-- FavoritsCreateComponent&#45;&gt;AppModule -->
<g id="edge5" class="edge">
<title>FavoritsCreateComponent&#45;&gt;AppModule</title>
<path fill="none" stroke="black" d="M2257,-85.1C2257,-103.07 2257,-127.8 2257,-127.8 2257,-127.8 1694.72,-127.8 1694.72,-127.8"/>
<polygon fill="black" stroke="black" points="1694.72,-124.3 1684.72,-127.8 1694.72,-131.3 1694.72,-124.3"/>
</g>
<!-- FavoritsScreenComponent -->
<g id="node6" class="node">
<title>FavoritsScreenComponent</title>
<polygon fill="#ffffb3" stroke="black" points="2156.8,-84.8 1991.2,-84.8 1991.2,-48.8 2156.8,-48.8 2156.8,-84.8"/>
<text text-anchor="middle" x="2074" y="-62.6" font-family="Times,serif" font-size="14.00">FavoritsScreenComponent</text>
</g>
<!-- FavoritsScreenComponent&#45;&gt;AppModule -->
<g id="edge6" class="edge">
<title>FavoritsScreenComponent&#45;&gt;AppModule</title>
<path fill="none" stroke="black" d="M2074,-84.83C2074,-101.2 2074,-122.8 2074,-122.8 2074,-122.8 1694.72,-122.8 1694.72,-122.8"/>
<polygon fill="black" stroke="black" points="1694.72,-119.3 1684.72,-122.8 1694.72,-126.3 1694.72,-119.3"/>
</g>
<!-- MainScreenComponent -->
<g id="node7" class="node">
<title>MainScreenComponent</title>
<polygon fill="#ffffb3" stroke="black" points="1973.47,-84.8 1824.53,-84.8 1824.53,-48.8 1973.47,-48.8 1973.47,-84.8"/>
<text text-anchor="middle" x="1899" y="-62.6" font-family="Times,serif" font-size="14.00">MainScreenComponent</text>
</g>
<!-- MainScreenComponent&#45;&gt;AppModule -->
<g id="edge7" class="edge">
<title>MainScreenComponent&#45;&gt;AppModule</title>
<path fill="none" stroke="black" d="M1899,-84.99C1899,-99.98 1899,-118.8 1899,-118.8 1899,-118.8 1694.7,-118.8 1694.7,-118.8"/>
<polygon fill="black" stroke="black" points="1694.7,-115.3 1684.7,-118.8 1694.7,-122.3 1694.7,-115.3"/>
</g>
<!-- NavigationComponent -->
<g id="node8" class="node">
<title>NavigationComponent</title>
<polygon fill="#ffffb3" stroke="black" points="1806.54,-84.8 1663.46,-84.8 1663.46,-48.8 1806.54,-48.8 1806.54,-84.8"/>
<text text-anchor="middle" x="1735" y="-62.6" font-family="Times,serif" font-size="14.00">NavigationComponent</text>
</g>
<!-- NavigationComponent&#45;&gt;AppModule -->
<g id="edge8" class="edge">
<title>NavigationComponent&#45;&gt;AppModule</title>
<path fill="none" stroke="black" d="M1674.03,-84.91C1674.03,-84.91 1674.03,-103.79 1674.03,-103.79"/>
<polygon fill="black" stroke="black" points="1670.53,-103.79 1674.03,-113.79 1677.53,-103.79 1670.53,-103.79"/>
</g>
<!-- ProductDetailviewComponent -->
<g id="node9" class="node">
<title>ProductDetailviewComponent</title>
<polygon fill="#ffffb3" stroke="black" points="1645.3,-84.8 1458.7,-84.8 1458.7,-48.8 1645.3,-48.8 1645.3,-84.8"/>
<text text-anchor="middle" x="1552" y="-62.6" font-family="Times,serif" font-size="14.00">ProductDetailviewComponent</text>
</g>
<!-- ProductDetailviewComponent&#45;&gt;AppModule -->
<g id="edge9" class="edge">
<title>ProductDetailviewComponent&#45;&gt;AppModule</title>
<path fill="none" stroke="black" d="M1623.16,-84.91C1623.16,-84.91 1623.16,-103.79 1623.16,-103.79"/>
<polygon fill="black" stroke="black" points="1619.66,-103.79 1623.16,-113.79 1626.66,-103.79 1619.66,-103.79"/>
</g>
<!-- SettingComponent -->
<g id="node10" class="node">
<title>SettingComponent</title>
<polygon fill="#ffffb3" stroke="black" points="1440.5,-84.8 1319.5,-84.8 1319.5,-48.8 1440.5,-48.8 1440.5,-84.8"/>
<text text-anchor="middle" x="1380" y="-62.6" font-family="Times,serif" font-size="14.00">SettingComponent</text>
</g>
<!-- SettingComponent&#45;&gt;AppModule -->
<g id="edge10" class="edge">
<title>SettingComponent&#45;&gt;AppModule</title>
<path fill="none" stroke="black" d="M1380,-84.99C1380,-99.98 1380,-118.8 1380,-118.8 1380,-118.8 1591.33,-118.8 1591.33,-118.8"/>
<polygon fill="black" stroke="black" points="1591.33,-122.3 1601.33,-118.8 1591.33,-115.3 1591.33,-122.3"/>
</g>
<!-- ShoppinglistDetailsComponent -->
<g id="node11" class="node">
<title>ShoppinglistDetailsComponent</title>
<polygon fill="#ffffb3" stroke="black" points="1301.77,-84.8 1110.23,-84.8 1110.23,-48.8 1301.77,-48.8 1301.77,-84.8"/>
<text text-anchor="middle" x="1206" y="-62.6" font-family="Times,serif" font-size="14.00">ShoppinglistDetailsComponent</text>
</g>
<!-- ShoppinglistDetailsComponent&#45;&gt;AppModule -->
<g id="edge11" class="edge">
<title>ShoppinglistDetailsComponent&#45;&gt;AppModule</title>
<path fill="none" stroke="black" d="M1206,-84.83C1206,-101.2 1206,-122.8 1206,-122.8 1206,-122.8 1591.1,-122.8 1591.1,-122.8"/>
<polygon fill="black" stroke="black" points="1591.1,-126.3 1601.1,-122.8 1591.1,-119.3 1591.1,-126.3"/>
</g>
<!-- ShoppinglistScreenComponent -->
<g id="node12" class="node">
<title>ShoppinglistScreenComponent</title>
<polygon fill="#ffffb3" stroke="black" points="1092.21,-84.8 901.79,-84.8 901.79,-48.8 1092.21,-48.8 1092.21,-84.8"/>
<text text-anchor="middle" x="997" y="-62.6" font-family="Times,serif" font-size="14.00">ShoppinglistScreenComponent</text>
</g>
<!-- ShoppinglistScreenComponent&#45;&gt;AppModule -->
<g id="edge12" class="edge">
<title>ShoppinglistScreenComponent&#45;&gt;AppModule</title>
<path fill="none" stroke="black" d="M997,-85.1C997,-103.07 997,-127.8 997,-127.8 997,-127.8 1591.11,-127.8 1591.11,-127.8"/>
<polygon fill="black" stroke="black" points="1591.11,-131.3 1601.11,-127.8 1591.11,-124.3 1591.11,-131.3"/>
</g>
<!-- SubmenuCardforfavoritsComponent -->
<g id="node13" class="node">
<title>SubmenuCardforfavoritsComponent</title>
<polygon fill="#ffffb3" stroke="black" points="884.02,-84.8 663.98,-84.8 663.98,-48.8 884.02,-48.8 884.02,-84.8"/>
<text text-anchor="middle" x="774" y="-62.6" font-family="Times,serif" font-size="14.00">SubmenuCardforfavoritsComponent</text>
</g>
<!-- SubmenuCardforfavoritsComponent&#45;&gt;AppModule -->
<g id="edge13" class="edge">
<title>SubmenuCardforfavoritsComponent&#45;&gt;AppModule</title>
<path fill="none" stroke="black" d="M774,-84.91C774,-104.14 774,-131.8 774,-131.8 774,-131.8 1591.09,-131.8 1591.09,-131.8"/>
<polygon fill="black" stroke="black" points="1591.09,-135.3 1601.09,-131.8 1591.09,-128.3 1591.09,-135.3"/>
</g>
<!-- SubmenuCardformainComponent -->
<g id="node14" class="node">
<title>SubmenuCardformainComponent</title>
<polygon fill="#ffffb3" stroke="black" points="645.75,-84.8 440.25,-84.8 440.25,-48.8 645.75,-48.8 645.75,-84.8"/>
<text text-anchor="middle" x="543" y="-62.6" font-family="Times,serif" font-size="14.00">SubmenuCardformainComponent</text>
</g>
<!-- SubmenuCardformainComponent&#45;&gt;AppModule -->
<g id="edge14" class="edge">
<title>SubmenuCardformainComponent&#45;&gt;AppModule</title>
<path fill="none" stroke="black" d="M543,-84.83C543,-105.57 543,-136.8 543,-136.8 543,-136.8 1591.22,-136.8 1591.22,-136.8"/>
<polygon fill="black" stroke="black" points="1591.22,-140.3 1601.22,-136.8 1591.22,-133.3 1591.22,-140.3"/>
</g>
<!-- SubmenuCardforshoppinglistComponent -->
<g id="node15" class="node">
<title>SubmenuCardforshoppinglistComponent</title>
<polygon fill="#ffffb3" stroke="black" points="422.2,-84.8 175.8,-84.8 175.8,-48.8 422.2,-48.8 422.2,-84.8"/>
<text text-anchor="middle" x="299" y="-62.6" font-family="Times,serif" font-size="14.00">SubmenuCardforshoppinglistComponent</text>
</g>
<!-- SubmenuCardforshoppinglistComponent&#45;&gt;AppModule -->
<g id="edge15" class="edge">
<title>SubmenuCardforshoppinglistComponent&#45;&gt;AppModule</title>
<path fill="none" stroke="black" d="M299,-85.09C299,-107.01 299,-140.8 299,-140.8 299,-140.8 1591.3,-140.8 1591.3,-140.8"/>
<polygon fill="black" stroke="black" points="1591.3,-144.3 1601.3,-140.8 1591.3,-137.3 1591.3,-144.3"/>
</g>
<!-- AppComponent  -->
<g id="node18" class="node">
<title>AppComponent </title>
<polygon fill="#80b1d3" stroke="black" points="1697.44,-214.8 1588.56,-214.8 1588.56,-178.8 1697.44,-178.8 1697.44,-214.8"/>
<text text-anchor="middle" x="1643" y="-192.6" font-family="Times,serif" font-size="14.00">AppComponent </text>
</g>
<!-- AppModule&#45;&gt;AppComponent  -->
<g id="edge17" class="edge">
<title>AppModule&#45;&gt;AppComponent </title>
<path fill="none" stroke="black" stroke-dasharray="1,5" d="M1643,-149.91C1643,-149.91 1643,-168.79 1643,-168.79"/>
<polygon fill="black" stroke="black" points="1639.5,-168.79 1643,-178.79 1646.5,-168.79 1639.5,-168.79"/>
</g>
<!-- AppRoutingModule -->
<g id="node17" class="node">
<title>AppRoutingModule</title>
<polygon fill="#8dd3c7" stroke="black" points="152.27,-84.8 149.27,-88.8 128.27,-88.8 125.27,-84.8 23.73,-84.8 23.73,-48.8 152.27,-48.8 152.27,-84.8"/>
<text text-anchor="middle" x="88" y="-62.6" font-family="Times,serif" font-size="14.00">AppRoutingModule</text>
</g>
<!-- AppRoutingModule&#45;&gt;AppModule -->
<g id="edge16" class="edge">
<title>AppRoutingModule&#45;&gt;AppModule</title>
<path fill="none" stroke="black" d="M88,-85.12C88,-108.46 88,-145.8 88,-145.8 88,-145.8 1591.01,-145.8 1591.01,-145.8"/>
<polygon fill="black" stroke="black" points="1591.01,-149.3 1601.01,-145.8 1591.01,-142.3 1591.01,-149.3"/>
</g>
</g>
</svg>
